<?xml version="1.0" standalone="no"?>
<!DOCTYPE svg PUBLIC "-//W3C//DTD SVG 20010904//EN"
 "http://www.w3.org/TR/2001/REC-SVG-20010904/DTD/svg10.dtd">
<svg version="1.0" xmlns="http://www.w3.org/2000/svg"
 width="569.000000pt" height="569.000000pt" viewBox="0 0 569.000000 569.000000"
 preserveAspectRatio="xMidYMid meet">
<metadata>
Created by potrace 1.11, written by Peter Selinger 2001-2013
</metadata>
<g transform="translate(0.000000,569.000000) scale(0.100000,-0.100000)"
fill="#000000" stroke="none">
<path d="M1494 5412 l-88 -42 -12 30 c-15 35 -49 40 -80 12 -53 -49 -175 -133
-213 -147 -111 -39 -141 -107 -91 -206 30 -58 28 -62 -37 -54 -103 13 -111 13
-143 -3 -18 -9 -38 -29 -45 -46 -7 -16 -27 -36 -46 -45 -53 -25 -58 -45 -57
-246 1 -100 -2 -187 -6 -193 -4 -7 -16 -12 -26 -12 -11 0 -24 -9 -30 -20 -8
-15 -6 -24 10 -40 11 -11 26 -20 33 -20 14 0 17 -32 21 -207 1 -82 4 -94 25
-117 22 -23 84 -49 108 -45 42 7 43 4 43 -134 l0 -133 -48 -36 c-96 -74 -171
-169 -227 -291 -63 -137 -86 -273 -84 -492 4 -366 4 -598 -1 -604 -3 -4 -19
-13 -36 -20 -40 -16 -50 -40 -53 -123 -4 -104 45 -175 149 -218 16 -7 30 -18
30 -26 0 -7 10 -24 23 -39 20 -23 31 -26 112 -31 120 -7 128 -8 133 -25 9 -28
46 -59 71 -59 14 0 85 -21 156 -46 119 -41 184 -55 273 -57 17 -1 33 -4 33 -7
1 -3 3 -20 5 -37 3 -28 1 -33 -19 -34 -12 -1 -33 -4 -47 -6 -14 -2 -61 -3
-105 -2 -264 8 -288 4 -355 -56 -24 -21 -33 -22 -193 -23 -164 0 -169 1 -177
22 -15 41 -31 45 -209 51 -160 5 -177 4 -215 -15 -68 -32 -94 -99 -60 -149 14
-20 22 -22 63 -17 25 4 128 7 228 7 l183 1 37 -30 c104 -82 193 -82 323 0 21
13 63 16 243 17 l217 1 0 -34 c0 -33 -1 -34 -47 -40 -27 -4 -76 -9 -110 -11
-100 -7 -169 -39 -237 -107 -55 -56 -61 -60 -115 -64 -63 -4 -102 -28 -111
-65 -4 -17 -15 -25 -35 -29 -19 -3 -38 -17 -52 -39 -20 -29 -34 -37 -90 -52
-95 -23 -104 -37 -103 -163 1 -55 6 -115 11 -132 12 -39 54 -59 104 -50 52 10
65 37 64 137 -1 108 0 110 41 134 21 12 38 32 43 50 13 46 200 147 342 183 89
23 270 30 510 19 l50 -2 0 -96 c0 -93 1 -97 36 -150 42 -65 56 -99 63 -159 32
-255 183 -452 377 -488 62 -12 154 -7 227 12 74 19 252 100 270 123 20 27 15
96 -10 133 -40 58 -64 69 -158 71 -169 3 -290 63 -458 225 l-74 72 16 31 c9
17 24 34 34 39 9 5 69 12 133 15 97 4 123 9 165 30 61 31 100 90 110 166 5 42
10 50 40 61 21 8 29 4 63 -33 l40 -42 373 -1 374 -1 41 -27 c32 -22 43 -37 52
-71 7 -28 20 -51 36 -61 37 -24 57 -25 348 -20 79 1 79 1 113 -36 19 -21 34
-42 34 -47 0 -4 -17 -20 -37 -33 -21 -14 -83 -70 -138 -125 -63 -62 -118 -107
-148 -121 -54 -25 -134 -31 -181 -13 -37 15 -58 7 -123 -41 -102 -75 -103
-140 -3 -212 134 -98 321 -141 433 -101 127 45 313 196 363 295 26 50 29 65
30 166 l1 110 44 75 44 74 -2 90 -3 91 83 3 c348 15 489 -4 651 -85 117 -59
166 -91 166 -108 0 -22 39 -64 63 -68 21 -3 22 -8 24 -93 1 -49 2 -98 2 -108
1 -26 50 -67 80 -67 33 0 71 26 71 48 0 9 9 46 20 80 24 77 25 104 4 147 -17
36 -100 85 -145 85 -17 0 -28 10 -39 33 -10 21 -26 36 -49 43 -23 7 -38 21
-46 42 -17 39 -43 52 -108 56 -49 2 -53 4 -69 38 -10 21 -29 40 -47 48 -36 15
-36 14 -14 50 22 37 52 50 105 44 122 -13 139 -10 238 42 l95 49 225 -3 c124
-1 235 0 246 3 30 7 35 47 12 83 -10 16 -45 43 -77 61 l-58 31 -152 -5 c-84
-2 -160 -6 -169 -9 -10 -4 -26 -19 -35 -36 -18 -30 -18 -30 -115 -31 -137 -2
-142 -1 -176 36 -46 49 -99 60 -216 47 -52 -7 -120 -10 -150 -7 -30 2 -95 7
-144 9 -48 3 -89 6 -91 8 -10 10 -8 79 3 76 4 -1 41 1 83 5 120 12 587 176
589 207 1 16 41 50 64 54 119 21 178 57 222 132 37 63 20 129 -31 119 -11 -2
-23 -4 -27 -4 -3 -1 -29 -32 -58 -70 -51 -69 -51 -70 -108 -76 -125 -15 -112
-19 -112 31 0 43 2 46 47 72 81 46 167 139 192 207 23 59 23 68 24 485 0 403
-1 429 -21 503 -46 167 -133 273 -285 346 -45 22 -94 43 -109 46 -38 10 -35
27 14 109 40 66 43 75 41 137 -2 76 -12 103 -51 127 -31 19 -30 19 -36 107
l-4 66 31 -8 c18 -4 65 -8 105 -8 71 0 75 1 103 33 21 24 29 42 29 70 0 50
-14 66 -81 96 -31 13 -59 32 -62 40 -8 21 16 43 62 56 20 5 48 21 62 36 23 24
24 32 23 137 -1 93 -4 119 -21 152 -39 74 -105 117 -187 121 -23 1 -46 2 -51
3 -6 1 -10 39 -10 95 0 131 -4 136 -170 210 -44 20 -90 38 -102 41 -34 6 -79
-38 -98 -95 -9 -28 -20 -50 -23 -50 -4 0 -24 18 -45 39 -47 49 -156 106 -224
119 -107 19 -199 -15 -309 -113 -95 -84 -115 -146 -83 -250 34 -112 148 -359
177 -383 38 -33 95 -61 135 -67 44 -7 121 19 168 56 43 34 71 37 99 9 22 -22
22 -22 24 -93 2 -51 1 -52 -69 -62 -74 -10 -85 -15 -100 -45 -9 -17 -12 -30
-8 -30 5 0 -11 -9 -35 -20 -33 -15 -44 -26 -48 -50 -7 -35 1 -33 -134 -31
-195 2 -253 15 -277 63 -15 28 -30 89 -37 143 -32 265 -80 407 -180 540 -29
38 -59 86 -66 105 -28 78 -36 90 -66 106 -54 29 -100 13 -164 -58 -30 -34 -81
-87 -112 -119 -63 -63 -75 -98 -64 -176 9 -69 46 -139 114 -221 37 -43 65 -88
70 -110 5 -20 17 -71 27 -112 10 -41 34 -112 55 -156 105 -228 299 -388 620
-511 52 -20 101 -41 108 -46 10 -8 11 -31 6 -92 -8 -99 7 -137 61 -157 23 -8
44 -26 57 -48 12 -19 47 -66 78 -105 59 -73 127 -172 148 -215 6 -14 32 -77
57 -140 76 -190 163 -308 273 -371 39 -22 42 -27 43 -69 2 -103 -1 -303 -4
-306 -5 -6 -116 73 -152 106 -97 92 -303 85 -407 -15 -37 -35 -36 -79 3 -156
39 -79 37 -123 -6 -127 -40 -3 -44 1 -84 82 -93 191 -239 369 -426 520 -205
166 -257 192 -393 201 -78 6 -133 12 -137 17 -2 2 -5 17 -8 34 -3 23 4 46 25
85 59 105 68 128 68 179 0 41 3 50 18 50 28 0 60 28 67 59 5 26 10 29 48 29
28 1 71 15 127 43 47 23 101 47 120 54 39 13 51 44 25 65 -8 7 -47 15 -86 18
-84 6 -114 -7 -131 -55 -7 -19 -19 -33 -29 -33 -27 0 -69 -39 -69 -66 0 -23
-3 -24 -59 -24 -81 0 -99 -16 -113 -103 -9 -56 -16 -71 -39 -88 -16 -11 -40
-41 -54 -67 -42 -76 -126 -124 -190 -108 -14 4 -39 25 -55 48 -27 37 -30 49
-29 103 2 74 -10 100 -56 116 -23 9 -35 19 -35 31 0 25 -44 68 -70 68 -38 0
-30 -57 25 -176 25 -53 45 -104 45 -114 0 -28 -25 -48 -82 -65 -69 -20 -98
-41 -98 -68 0 -17 -22 -39 -87 -87 -310 -229 -454 -370 -531 -521 -21 -41 -27
-46 -61 -47 -33 -2 -43 5 -96 59 -168 170 -248 171 -479 7 -44 -32 -81 -56
-82 -55 -1 1 -5 79 -8 174 l-5 172 47 23 c93 45 157 125 264 330 53 102 122
243 153 313 107 240 186 325 301 324 33 -1 75 6 94 14 48 20 96 70 115 120 13
34 24 45 58 60 58 24 120 87 185 187 30 47 65 101 78 120 44 67 106 124 168
155 60 32 61 33 60 73 -1 53 -20 73 -98 110 -108 51 -159 124 -151 217 5 63
22 119 86 275 32 80 59 152 59 161 0 36 -29 44 -139 42 l-106 -3 -1 38 c-1 20
-4 47 -6 59 -9 49 -63 83 -133 83 -31 0 -45 4 -45 14 0 22 -39 64 -62 68 -12
2 -30 18 -41 38 -10 19 -27 40 -36 45 -9 6 -82 10 -163 10 l-147 0 -87 -43z
m1947 -4385 c9 -20 13 -35 8 -31 -13 8 -35 54 -42 89 -7 34 -11 40 34 -58z"/>
<path d="M2206 3472 c-27 -9 -51 -21 -53 -27 -1 -5 37 -35 85 -66 82 -53 158
-86 192 -83 8 1 23 2 33 3 42 3 6 75 -43 84 -21 5 -35 16 -46 40 -18 38 -60
67 -96 67 -12 -1 -45 -9 -72 -18z"/>
</g>
</svg>
